<?xml version="1.0" standalone="no"?> <!DOCTYPE svg PUBLIC "-//W3C//DTD SVG 1.0//EN" "http://www.w3.org/TR/2001/REC-SVG-20010904/DTD/svg10.dtd" > <svg xmlns="http://www.w3.org/2000/svg" width="100%" height="100%">
<defs >
<font horiz-adv-x="1265" ><font-face
    font-family="Fraunces"
    units-per-em="2000"
    panose-1="0 0 0 0 0 0 0 0 0 0"
    ascent="1956"
    descent="-510"
    alphabetic="0" />
<missing-glyph horiz-adv-x="1000" d="M100 -490V1510H900V-490H100ZM200 -390H800V1410H200V-390Z" />
<glyph unicode=" " glyph-name="space" horiz-adv-x="410" />
<glyph unicode="!" glyph-name="exclam" horiz-adv-x="690" d="M345 1506Q476 1506 538 1447T600 1289Q600 1260 595 1225T578 1148L432 610Q419 561 400 538T345 514Q310 514 291 537T258 610L112 1148Q101 1190 96 1225T90 1289Q90 1388 152 1447T345 1506ZM344
-30Q278 -30 224 3T139 93T107 214Q107 281 138 335T224 423T344 456Q412 456 466 423T551 336T583 214Q583 149 552 93T466 4T344 -30Z" />
<glyph unicode="&quot;" glyph-name="quotedbl" horiz-adv-x="899" d="M669 780Q638 780 614 803T581 869L499 1292Q473 1428 519 1500T682 1573Q800 1573 843 1498T858 1293L767 867Q757 822 732 801T669 780ZM210 780Q179 780 155 803T122 869L40 1292Q14 1428
60 1500T223 1573Q341 1573 384 1498T399 1293L308 867Q298 822 273 801T210 780Z" />
<glyph unicode="#" glyph-name="numbersign" horiz-adv-x="1373" d="M537 687Q527 648 514 596T486 485T456 365T426 246T398 136T375 46Q353 -24 283 -8Q248 2 236 24T232 81Q242 117 257 166T292 272T331 390T371 508T406 619T433 712Q444 752 456 805T482 918T508
1040T533 1161T557 1270T578 1355Q600 1424 670 1408Q706 1399 718 1376T721 1319Q711 1281 697 1231T665 1123T629 1005T594 887T563 777T537 687ZM727 989Q769 989 824 991T941 996T1063 1002T1175 1008T1264 1011Q1301 1011 1322 994T1345 944Q1344 910 1323
893T1263 874Q1225 874 1172 876T1059 880T938 885T823 889T726 891Q684 890 628 889T510 886T386 883T270 881T176 880Q138 879 117 896T95 947Q95 982 116 998T176 1016Q214 1016 267 1014T382 1007T507 998T627 991T727 989ZM659 442Q617 442 561 441T443 438T319
435T203 432T109 431Q71 431 50 448T28 499Q28 534 49 550T109 567Q147 567 200 565T315 558T439 549T559 543T660 540Q702 540 757 542T874 547T996 553T1108 559T1197 562Q1234 562 1255 545T1278 495Q1277 461 1256 444T1196 425Q1157 426 1104 427T991 431T871
436T755 440T659 442ZM778 46Q756 -24 686 -8Q651 2 639 24T635 81Q645 117 660 166T695 272T734 390T774 508T809 619T837 712Q848 752 860 805T886 918T912 1040T937 1160T961 1269T982 1354Q1002 1425 1073 1408Q1109 1399 1121 1376T1123 1318Q1113 1281 1099
1231T1067 1123T1032 1005T997 886T966 777T940 687Q930 648 917 596T889 485T859 365T829 246T801 136T778 46Z" />
<glyph unicode="$" glyph-name="dollar" horiz-adv-x="1263" d="M666 1394Q835 1394 951 1352T1127 1234T1188 1060Q1188 984 1143 929T1025 874Q940 874 883 922T826 1049V1146Q826 1226 780 1275T651 1324Q597 1324 554 1303T486 1239T461 1136Q461 1078 489
1031T582 943T758 865Q934 805 1031 738T1168 594T1208 428Q1208 298 1138 203T936 56T617 4Q436 4 314 47T129 164T67 325Q67 404 115 454T246 505Q320 505 373 455T427 320V236Q427 166 480 122T621 78Q716 78 773 124T830 248Q830 335 764 399T522 523Q363 579
268 643T130 788T87 969Q87 1088 157 1184T357 1337T666 1394ZM692 768H620Q620 907 614 1018T599 1220T584 1384T577 1521Q577 1563 598 1585T656 1608Q689 1608 712 1586T735 1519Q735 1461 729 1389T714 1227T699 1023T692 768ZM591 664H662Q662 524 668 411T683
206T698 43T705 -89Q705 -131 684 -153T626 -176Q592 -176 570 -154T547 -87Q547 -24 553 49T568 212T584 413T591 664Z" />
<glyph unicode="%" glyph-name="percent" horiz-adv-x="1748" d="M463 1433Q637 1433 745 1333T854 1058Q854 924 802 833T658 694T453 647Q261 647 155 748T49 1041Q49 1219 161 1326T463 1433ZM542 1036Q542 1209 519 1277T453 1345Q406 1345 384 1276T362 1057Q362
874 386 805T456 736Q481 736 500 761T530 851T542 1036ZM983 776Q962 751 946 745T905 751Q885 762 883 779T893 824Q907 855 928 901T975 1002T1027 1113T1078 1219T1123 1309T1155 1367Q1185 1414 1227 1427T1320 1412Q1369 1385 1377 1345T1355 1258Q1343 1239
1317 1204T1257 1124T1185 1029T1110 931T1039 843T983 776ZM767 630Q789 655 806 662T847 657Q868 645 869 628T857 582Q843 551 822 505T776 403T724 292T673 184T628 95T596 37Q566 -9 524 -21T431 -7Q383 19 375 59T397 146Q409 165 434 200T494 282T567 377T642
475T712 563T767 630ZM1308 750Q1482 750 1590 650T1699 375Q1699 241 1647 150T1503 11T1298 -36Q1106 -36 1000 65T894 358Q894 536 1006 643T1308 750ZM1387 353Q1387 526 1364 594T1298 662Q1251 662 1229 593T1207 374Q1207 191 1231 122T1301 53Q1326 53
1345 78T1375 168T1387 353Z" />
<glyph unicode="&amp;" glyph-name="ampersand" horiz-adv-x="2026" d="M1319 -50Q1520 -50 1662 23T1880 235T1956 566Q1956 773 1876 960T1645 1292Q1506 1425 1310 1499T896 1573Q631 1573 451 1500T178 1294T86 984Q86 874 138 804T284 733Q365 733 416 782T468
909Q468 956 458 990T435 1055T411 1116T401 1188Q401 1265 449 1327T605 1426T888 1463Q1085 1463 1259 1394T1555 1206Q1691 1073 1759 904T1827 568Q1827 420 1784 324T1669 182T1508 135Q1444 135 1390 165T1274 269T1127 471Q1054 578 1009 666T943 835T921
999Q921 1080 944 1130T1003 1181Q1031 1181 1046 1132T1061 1006Q1061 918 1042 853T991 751T919 715L935 652Q1076 652 1179 691T1338 803T1395 972Q1395 1062 1348 1131T1217 1240T1022 1280Q880 1280 780 1221T627 1060T573 834Q573 728 597 629T670 430T791
223Q852 130 927 70T1099 -20T1319 -50ZM1234 254L1266 188Q1481 258 1578 373T1676 619Q1676 714 1636 768T1521 822Q1448 822 1402 769T1356 643Q1356 610 1364 585T1380 531T1388 460Q1388 425 1371 389T1320 318T1234 254ZM642 616V697Q461 697 332 650T133
517T64 318Q64 149 174 61T489 -28Q593 -28 671 -10T803 42T892 121L837 205Q806 171 774 156T697 141Q615 141 566 209T516 385Q516 454 531 506T575 587T642 616Z" />
<glyph unicode="&apos;" glyph-name="quotesingle" horiz-adv-x="440" d="M210 780Q179 780 155 803T122 869L40 1292Q14 1428 60 1500T223 1573Q341 1573 384 1498T399 1293L308 867Q298 822 273 801T210 780Z" />
<glyph unicode="(" glyph-name="parenleft" horiz-adv-x="803" d="M150 609Q150 825 218 1001T402 1297T657 1466Q747 1497 771 1466Q784 1450 776 1428T736 1364Q669 1278 615 1161T528 905T496 609Q496 454 528 314T614 57T736 -146Q768 -187 776 -209T771 -248Q747
-279 657 -248Q517 -200 402 -80T219 217T150 609Z" />
<glyph unicode=")" glyph-name="parenright" horiz-adv-x="803" d="M653 609Q653 393 585 217T401 -79T146 -248Q56 -279 32 -248Q19 -232 27 -210T67 -146Q134 -60 188 57T275 313T307 609Q307 764 275 904T189 1161T67 1364Q35 1405 27 1427T32 1466Q56 1497
146 1466Q286 1418 401 1298T584 1001T653 609Z" />
<glyph unicode="*" glyph-name="asterisk" horiz-adv-x="1250" d="M648 991H609Q609 1065 583 1122T522 1228T461 1323T434 1422Q434 1568 628 1568Q720 1568 771 1531T823 1422Q823 1370 797 1324T736 1228T675 1122T648 991ZM635 1008L622 973Q552 996 489 990T367
965T255 937T151 942Q13 988 73 1169Q102 1255 153 1291T272 1305Q322 1289 359 1250T433 1164T517 1074T635 1008ZM613 1001L644 979Q601 919 588 858T574 737T566 624T528 529Q444 411 285 523Q211 576 192 635T212 753Q244 795 293 817T400 859T513 910T613
1001ZM613 979L644 1001Q688 941 744 910T857 860T964 818T1045 753Q1129 635 972 523Q899 470 835 470T729 529Q698 571 692 624T684 736T670 857T613 979ZM622 1008Q693 1031 740 1073T824 1163T898 1250T985 1305Q1124 1349 1184 1168Q1212 1083 1193 1024T1106
942Q1056 926 1002 936T890 965T769 989T635 973L622 1008Z" />
<glyph unicode="+" glyph-name="plus" horiz-adv-x="1147" d="M105 682Q105 719 127 740T178 762H971Q1000 762 1021 741T1042 682Q1042 645 1021 625T971 604H177Q149 604 127 624T105 682ZM568 230Q531 230 510 252T488 303V1096Q488 1125 509 1146T568 1167Q605
1167 625 1146T646 1096V302Q646 274 626 252T568 230Z" />
<glyph unicode="," glyph-name="comma" horiz-adv-x="681" d="M316 -22Q209 -22 158 35T106 182Q106 280 173 346T342 412Q452 412 526 335T601 99Q601 -3 575 -85T499 -230T374 -335T202 -400Q149 -412 120 -403T85 -370Q79 -344 96 -323T164 -286Q256 -259 311
-225T392 -148T417 -57Q417 -40 408 -31T376 -22H316Z" />
<glyph unicode="-" glyph-name="hyphen" horiz-adv-x="804" d="M684 687Q782 687 744 583L713 497Q696 448 673 431T611 413H120Q22 413 60 517L91 603Q108 652 131 669T193 687H684Z" />
<glyph unicode="." glyph-name="period" horiz-adv-x="656" d="M327 -30Q261 -30 207 3T122 93T90 214Q90 281 121 335T207 423T327 456Q395 456 449 423T534 336T566 214Q566 149 535 93T449 4T327 -30Z" />
<glyph unicode="/" glyph-name="slash" horiz-adv-x="1024" d="M591 574Q567 521 539 452T480 306T420 149T361 -6T306 -146T258 -257Q237 -301 193 -311T93 -296Q37 -270 17 -230T17 -145Q39 -98 71 -37T142 95T223 240T305 387T379 525T439 644Q464 697 492
766T550 912T610 1069T669 1224T724 1364T772 1475Q793 1519 837 1529T937 1514Q993 1488 1013 1448T1013 1363Q992 1317 960 1255T888 1123T807 978T725 831T651 693T591 574Z" />
<glyph unicode="0" glyph-name="zero" horiz-adv-x="1461" d="M737 1440Q949 1440 1097 1354T1322 1102T1400 697Q1400 472 1317 307T1082 51T724 -40Q513 -40 365 46T139 298T61 703Q61 928 144 1093T380 1349T737 1440ZM928 650Q928 896 906 1043T838 1255T722
1320Q658 1320 616 1264T554 1082T533 750Q533 504 555 357T623 145T739 80Q803 80 845 136T907 318T928 650Z" />
<glyph unicode="1" glyph-name="one" horiz-adv-x="1024" d="M173 1166H234Q269 1166 284 1148T300 1080V251Q300 211 285 191T240 163L140 141Q73 125 73 69Q73 37 94 19T161 0H888Q927 0 946 18T965 69Q965 126 909 140L820 163Q793 170 779 190T764 251V1351Q764
1430 683 1430Q658 1430 636 1425T586 1405Q503 1365 435 1344T269 1323H179Q136 1323 111 1301T86 1244Q86 1210 107 1188T173 1166Z" />
<glyph unicode="2" glyph-name="two" horiz-adv-x="1334" d="M262 338L194 390L378 484Q487 540 563 613T678 784T718 1012Q718 1132 705 1203T666 1307T604 1339Q554 1339 534 1293T513 1166V1027Q513 935 457 880T299 825Q204 825 148 884T91 1050Q91 1152 150
1241T334 1385T651 1440Q842 1440 964 1387T1144 1241T1203 1027Q1203 921 1143 831T957 659T632 493L262 338ZM60 180Q60 298 152 368T419 439Q498 439 568 430T705 408T842 387T990 377Q1057 377 1098 402T1174 483Q1190 509 1208 519T1249 527Q1275 525 1288
503T1298 431Q1285 261 1238 158T1114 7T931 -40Q847 -40 785 -17T678 61T601 207Q585 256 572 271T536 286Q512 286 496 264T475 190Q468 105 439 55T362 -18T246 -40Q165 -40 113 19T60 180Z" />
<glyph unicode="3" glyph-name="three" horiz-adv-x="1237" d="M589 726L555 759Q575 765 598 769T647 775T702 778Q845 778 953 734T1121 609T1182 414Q1182 276 1112 174T911 16T599 -40Q424 -40 308 2T135 118T77 287Q77 383 140 444T296 506Q397 506 447 454T498
314V207Q498 149 523 108T596 67Q643 67 676 95T727 186T745 351Q745 503 698 568T567 633H495Q454 633 434 651T414 704Q414 730 425 750T467 796L912 1183L924 1059H394Q352 1059 329 1045T298 997L278 918Q271 889 252 872T195 854Q159 854 136 873T117 933L153
1307Q157 1350 188 1375T271 1400H1084Q1145 1400 1171 1385T1197 1337Q1197 1315 1181 1287T1111 1210L589 726Z" />
<glyph unicode="4" glyph-name="four" horiz-adv-x="1397" d="M655 606Q655 634 664 654T692 691L968 938Q995 963 1012 970T1047 977Q1070 977 1083 964T1097 920L1099 233Q1099 202 1112 187T1148 163L1216 139Q1248 128 1264 112T1281 69Q1281 37 1261 19T1196
0H542Q456 0 456 68Q456 121 520 139L608 163Q632 170 643 185T655 231V606ZM401 808Q454 855 480 896T506 978Q506 1013 494 1043T466 1105T437 1172T425 1256Q425 1319 456 1368T551 1446T711 1474Q824 1474 893 1420T962 1264Q962 1224 948 1180T890 1077T756
939L178 420L152 482H1229Q1266 482 1288 468T1311 421Q1311 351 1227 351H117Q76 351 53 373T30 430Q30 450 43 472T91 526L401 808Z" />
<glyph unicode="5" glyph-name="five" horiz-adv-x="1267" d="M79 281Q79 379 143 442T301 506Q400 506 450 452T500 313V174Q500 128 526 94T604 59Q666 59 706 132T746 365Q746 544 686 623T524 702Q494 702 466 694T408 670T345 626Q314 602 292 593T244 583Q215
583 193 599T170 652V1317Q170 1366 198 1394T287 1422Q310 1422 337 1418T406 1401Q458 1387 521 1376T652 1359T788 1353Q904 1353 968 1369T1068 1412Q1105 1438 1127 1442T1164 1441Q1178 1436 1187 1420T1191 1368Q1173 1226 1114 1141T952 1018T697 980Q613
980 525 990T358 1020T222 1064L323 1187V686L263 705Q321 757 378 788T503 834T661 848Q818 848 935 796T1118 649T1184 423Q1184 274 1110 171T900 14T585 -40Q416 -40 304 2T135 116T79 281Z" />
<glyph unicode="6" glyph-name="six" horiz-adv-x="1348" d="M768 1440Q923 1440 1030 1397T1193 1283T1249 1130Q1249 1030 1189 975T1026 919Q923 919 867 971T810 1118V1216Q810 1269 787 1295T717 1321Q674 1321 638 1285T575 1169T534 955T519 627Q519 409
542 290T603 124T686 77Q761 77 804 152T847 390Q847 538 795 613T660 689Q617 689 578 670T510 616T471 534L399 570Q406 643 465 708T620 813T836 854Q975 854 1076 807T1233 668T1288 442Q1288 299 1216 191T1010 21T693 -40Q490 -40 349 46T134 288T60 654Q60
899 144 1075T388 1345T768 1440Z" />
<glyph unicode="7" glyph-name="seven" horiz-adv-x="1145" d="M828 1051L905 1016H349Q306 1016 288 1002T260 953L234 849Q227 819 206 802T150 784Q110 784 90 804T71 864L99 1308Q101 1349 127 1374T200 1400H1057Q1116 1400 1146 1374T1177 1307Q1177 1282
1161 1253T1100 1173L906 949Q826 857 780 798T711 700T682 636T675 583Q675 528 699 489T754 412T810 327T834 207Q834 109 763 35T548 -40Q412 -40 329 34T245 244Q245 315 272 386T369 549T566 775L828 1051Z" />
<glyph unicode="8" glyph-name="eight" horiz-adv-x="1385" d="M644 -39Q446 -39 324 7T145 133T89 313Q89 393 140 457T301 561T587 610L586 587Q557 550 548 481T538 345Q538 212 576 135T698 58Q772 58 806 110T840 252Q840 321 814 379T723 482T541 557Q305
619 201 728T96 972Q96 1092 164 1199T377 1373T746 1440Q918 1440 1042 1390T1235 1252T1303 1050Q1303 965 1252 890T1087 765T783 709L753 735Q785 769 810 817T850 924T865 1050Q865 1144 846 1207T787 1304T686 1337Q636 1337 603 1312T554 1242T538 1140Q538
1048 570 979T677 860T881 771Q1099 707 1204 608T1310 379Q1310 259 1233 165T1008 16T644 -39Z" />
<glyph unicode="9" glyph-name="nine" horiz-adv-x="1348" d="M580 -40Q425 -40 318 3T155 118T99 270Q99 371 160 426T322 481Q425 481 481 429T538 282V184Q538 132 561 106T631 79Q689 79 733 144T803 362T829 773Q829 992 806 1111T745 1276T662 1323Q587
1323 544 1250T501 1016Q501 874 553 801T688 727Q732 727 771 744T839 792T877 866L949 846Q942 773 883 708T728 603T512 562Q373 562 272 608T115 744T60 964Q60 1105 132 1212T338 1379T655 1440Q859 1440 1000 1354T1214 1112T1288 746Q1288 502 1204 326T961
55T580 -40Z" />
<glyph unicode=":" glyph-name="colon" horiz-adv-x="656" d="M327 -30Q261 -30 207 3T122 93T90 214Q90 281 121 335T207 423T327 456Q395 456 449 423T534 336T566 214Q566 149 535 93T449 4T327 -30ZM327 538Q261 538 207 571T122 661T90 782Q90 849 121 903T207
991T327 1024Q395 1024 449 991T534 904T566 782Q566 717 535 661T449 572T327 538Z" />
<glyph unicode=";" glyph-name="semicolon" horiz-adv-x="681" d="M340 537Q274 537 220 570T135 660T103 781Q103 848 134 902T220 990T340 1023Q408 1023 462 990T547 903T579 781Q579 716 548 660T462 571T340 537ZM316 -22Q209 -22 158 35T106 182Q106 280
173 346T342 412Q452 412 526 335T601 99Q601 -3 575 -85T499 -230T374 -335T202 -400Q149 -412 120 -403T85 -370Q79 -344 96 -323T164 -286Q256 -259 311 -225T392 -148T417 -57Q417 -40 408 -31T376 -22H316Z" />
<glyph unicode="&lt;" glyph-name="less" horiz-adv-x="1062" d="M299 700V668L870 1005Q911 1026 928 1052T946 1102Q947 1135 928 1156T867 1178Q833 1178 799 1164T714 1123L172 807Q129 785 107 754T85 684Q85 644 107 613T172 560L718 243Q768 218 802 203T871
188Q912 188 931 209T949 265Q949 288 932 315T874 362L299 700Z" />
<glyph unicode="=" glyph-name="equal" horiz-adv-x="1147" d="M112 867Q112 904 134 925T185 947H978Q1007 947 1028 926T1049 867Q1049 830 1028 810T978 789H184Q156 789 134 809T112 867ZM112 503Q112 540 134 561T185 583H978Q1007 583 1028 562T1049 503Q1049
466 1028 446T978 425H184Q156 425 134 445T112 503Z" />
<glyph unicode="&gt;" glyph-name="greater" horiz-adv-x="1062" d="M756 668V700L185 363Q144 342 127 316T109 266Q108 233 127 212T188 190Q222 190 256 204T341 245L883 561Q926 583 948 614T970 684Q970 724 948 755T883 808L337 1125Q287 1150 253 1165T184
1180Q143 1180 124 1159T106 1103Q106 1080 123 1053T181 1006L756 668Z" />
<glyph unicode="?" glyph-name="question" horiz-adv-x="1214" d="M428 669L451 586Q462 548 483 531T542 514Q576 514 595 530T629 590L651 656Q662 689 677 704T726 725L798 738Q989 773 1073 860T1158 1094Q1158 1280 1022 1378T596 1476Q435 1476 311 1425T116
1289T45 1101Q45 1001 102 947T253 892Q363 892 421 956T480 1140V1234Q480 1292 508 1322T581 1352Q637 1352 662 1301T687 1153Q687 1018 667 944T585 844L513 814Q453 789 434 755T428 669ZM533 -30Q467 -30 413 3T328 93T296 214Q296 281 327 335T413 423T533
456Q601 456 655 423T740 336T772 214Q772 149 741 93T655 4T533 -30Z" />
<glyph unicode="@" glyph-name="at" horiz-adv-x="1986" d="M1101 492Q1080 501 1065 506T1023 511Q984 511 955 480T925 389Q925 328 952 296T1023 263Q1052 263 1075 273T1106 302L1132 234Q1092 165 1007 128T826 91Q690 91 608 154T525 319Q525 442 641 517T983
592Q1039 592 1068 586T1132 562L1101 492ZM1521 251Q1564 251 1604 276T1677 350T1729 470T1748 632Q1748 845 1650 998T1384 1234T1007 1317Q837 1317 696 1262T453 1104T295 863T239 555Q239 321 337 145T610 -128T1011 -226Q1195 -226 1361 -169T1688 34Q1722
65 1748 71T1793 61Q1810 46 1805 19T1763 -47Q1693 -123 1585 -190T1333 -300T1010 -343Q813 -343 646 -281T354 -103T162 180T93 555Q93 739 161 898T352 1178T645 1366T1017 1434Q1200 1434 1359 1381T1638 1224T1825 973T1892 634Q1892 474 1837 352T1676 160T1420
91Q1328 92 1259 111T1149 165T1103 248L1070 255V856Q1070 893 1054 919T1003 945Q975 945 957 928T938 881V814Q938 733 878 688T733 642Q665 642 613 676T560 786Q560 864 615 923T779 1016T1049 1050Q1168 1050 1260 1021T1406 930T1459 770V323Q1459 289 1473
270T1521 251Z" />
<glyph unicode="A" glyph-name="A" horiz-adv-x="1576" d="M357 596H941L942 447H355L357 596ZM518 68Q518 37 498 19T433 0H113Q70 0 49 18T28 68Q28 90 38 105T73 136L94 149Q127 169 145 198T186 301L442 1128Q460 1187 455 1213T414 1257Q386 1271 375 1289T363
1332Q363 1364 384 1382T449 1400H1092Q1136 1400 1157 1382T1178 1332Q1178 1305 1166 1288T1130 1259Q1105 1247 1101 1227T1110 1162L1385 291Q1406 224 1423 193T1468 147Q1503 129 1515 112T1527 68Q1527 37 1506 19T1441 0H913Q868 0 848 18T827 68Q827 93
840 108T879 136L911 151Q937 163 933 183T915 250L621 1225L663 1254L376 327Q360 276 360 245T378 192T439 148L467 134Q490 122 504 108T518 68Z" />
<glyph unicode="B" glyph-name="B" horiz-adv-x="1548" d="M1513 335Q1513 185 1384 93T983 0H175Q131 0 110 18T89 68Q89 122 141 142L179 156Q205 166 217 181T230 222V1178Q230 1203 218 1218T179 1244L141 1258Q89 1278 89 1332Q89 1364 110 1382T175 1400H808Q1003
1400 1143 1348T1358 1203T1433 985Q1433 884 1373 807T1197 685T918 641L963 682Q1127 682 1250 639T1443 517T1513 335ZM825 584H567V695H776Q850 695 899 723T973 809T998 958Q998 1055 965 1124T871 1232T723 1270H694V249Q694 188 728 159T825 130H876Q932
130 972 155T1035 230T1057 350Q1057 460 996 522T825 584Z" />
<glyph unicode="C" glyph-name="C" horiz-adv-x="1444" d="M1386 401Q1386 322 1345 244T1225 102T1037 -1T789 -40Q565 -40 402 53T149 312T60 693Q60 854 113 990T261 1227T484 1384T760 1440Q853 1440 910 1424T1003 1392T1063 1375Q1092 1375 1110 1390T1148
1421T1198 1436Q1223 1436 1239 1420T1267 1366L1370 1012Q1379 981 1363 957T1315 924Q1281 916 1253 928T1210 976Q1159 1096 1098 1162T971 1255T835 1282Q762 1282 705 1247T607 1146T546 987T525 776Q525 585 576 458T717 267T927 203Q1031 203 1118 256T1262
414Q1279 446 1299 456T1343 461Q1366 457 1376 442T1386 401Z" />
<glyph unicode="D" glyph-name="D" horiz-adv-x="1673" d="M89 68Q89 122 141 142L179 156Q205 166 217 181T230 222V1178Q230 1203 218 1218T179 1244L141 1258Q89 1278 89 1332Q89 1364 110 1382T175 1400H796Q980 1400 1130 1345T1389 1190T1556 952T1615 648Q1615
461 1526 315T1275 84T893 0H175Q131 0 110 18T89 68ZM834 143Q919 143 988 195T1097 359T1138 653Q1138 796 1112 908T1034 1098T909 1216T743 1257H694V254Q694 196 723 170T808 143H834Z" />
<glyph unicode="E" glyph-name="E" horiz-adv-x="1384" d="M518 781H781Q843 781 869 805T917 900Q927 934 946 949T990 964Q1043 964 1057 905L1135 590Q1144 553 1135 532T1096 500Q1068 490 1044 497T1002 529Q970 575 944 599T885 632T800 641H518V781ZM89
1332Q89 1364 110 1382T175 1400H929Q975 1400 1005 1409T1061 1427T1123 1436Q1168 1436 1191 1411T1231 1328L1316 1047Q1327 1011 1316 987T1274 952Q1238 939 1210 952T1163 999Q1120 1078 1082 1128T1006 1207T925 1246T829 1257H694V265Q694 204 724 174T812
143H859Q934 143 991 166T1101 254T1211 441Q1226 473 1251 484T1309 490Q1344 483 1360 458T1365 394L1272 72Q1256 17 1233 -9T1160 -36Q1129 -36 1104 -27T1048 -9T971 0H175Q131 0 110 18T89 68Q89 122 141 142L179 156Q205 166 217 181T230 222V1178Q230 1203
218 1218T179 1244L141 1258Q89 1278 89 1332Z" />
<glyph unicode="F" glyph-name="F" horiz-adv-x="1304" d="M899 1400Q945 1400 977 1408T1035 1423T1088 1431Q1136 1431 1160 1408T1200 1328L1288 1024Q1297 993 1279 972T1227 945Q1201 941 1175 950T1132 994Q1078 1102 1027 1158T922 1236T802 1257H694V222Q694
197 705 180T745 156L805 143Q837 136 851 119T865 68Q865 37 844 19T779 0H175Q131 0 110 18T89 68Q89 122 141 142L179 156Q205 166 217 181T230 222V1178Q230 1203 218 1218T179 1244L141 1258Q89 1278 89 1332Q89 1364 110 1382T175 1400H899ZM527 739H797Q860
739 887 764T939 864Q949 894 967 906T1009 918Q1067 918 1080 863L1158 545Q1167 509 1156 489T1119 459Q1091 449 1067 457T1020 495Q991 536 966 558T907 590T821 599H527V739Z" />
<glyph unicode="G" glyph-name="G" horiz-adv-x="1570" d="M1404 39Q1404 -1 1385 -20T1325 -40Q1292 -40 1265 -23T1212 18T1165 58T1120 76Q1096 76 1067 59T998 19T899 -21T758 -39Q593 -39 464 13T244 162T107 395T60 700Q60 859 115 994T270 1229T503 1384T791
1440Q892 1440 954 1424T1055 1392T1121 1375Q1150 1375 1168 1390T1206 1421T1256 1436Q1281 1436 1297 1420T1325 1366L1428 1012Q1437 981 1421 957T1373 924Q1339 916 1311 928T1268 976Q1217 1097 1152 1163T1013 1256T866 1282Q759 1282 683 1221T566 1046T525
776Q525 575 573 441T705 239T899 172Q924 172 942 179T971 200T988 231T994 272V495Q994 516 984 527T943 547L899 560Q868 569 851 586T833 629Q833 659 854 676T919 694H1436Q1481 694 1502 677T1523 630Q1523 605 1510 590T1471 563L1448 554Q1428 546 1416
533T1404 495V39Z" />
<glyph unicode="H" glyph-name="H" horiz-adv-x="1805" d="M424 737H1271V588H424V737ZM694 222Q694 197 707 182T745 156L783 142Q835 122 835 68Q835 37 814 19T749 0H175Q131 0 110 18T89 68Q89 122 141 142L179 156Q205 166 217 181T230 222V1178Q230 1203
218 1218T179 1244L141 1258Q89 1278 89 1332Q89 1364 110 1382T175 1400H749Q793 1400 814 1382T835 1332Q835 1278 783 1258L745 1244Q720 1234 707 1219T694 1178V222ZM1575 222Q1575 197 1588 182T1626 156L1664 142Q1716 122 1716 68Q1716 37 1695 19T1630
0H1056Q1012 0 991 18T970 68Q970 122 1022 142L1060 156Q1086 166 1098 181T1111 222V1178Q1111 1203 1099 1218T1060 1244L1022 1258Q970 1278 970 1332Q970 1364 991 1382T1056 1400H1630Q1674 1400 1695 1382T1716 1332Q1716 1278 1664 1258L1626 1244Q1601
1234 1588 1219T1575 1178V222Z" />
<glyph unicode="I" glyph-name="I" horiz-adv-x="924" d="M694 222Q694 197 707 182T745 156L783 142Q835 122 835 68Q835 37 814 19T749 0H175Q131 0 110 18T89 68Q89 122 141 142L179 156Q205 166 217 181T230 222V1178Q230 1203 218 1218T179 1244L141 1258Q89
1278 89 1332Q89 1364 110 1382T175 1400H749Q793 1400 814 1382T835 1332Q835 1278 783 1258L745 1244Q720 1234 707 1219T694 1178V222Z" />
<glyph unicode="J" glyph-name="J" horiz-adv-x="1204" d="M1059 282Q1059 139 922 52T544 -36Q312 -36 182 48T51 281Q51 383 108 446T261 509Q345 509 400 451T455 285V195Q455 143 480 115T558 86Q609 86 638 114T667 193Q667 243 644 288T589 387T534 510T510
680V1178Q510 1204 499 1221T459 1244L399 1257Q368 1264 354 1281T339 1332Q339 1364 360 1382T425 1400H1029Q1073 1400 1094 1382T1115 1332Q1115 1278 1063 1258L1025 1244Q1000 1234 987 1219T974 1178V710Q974 630 987 574T1016 474T1046 384T1059 282Z"
/>
<glyph unicode="K" glyph-name="K" horiz-adv-x="1731" d="M561 574L1066 1048Q1120 1099 1138 1137T1145 1203T1097 1247L1068 1260Q1042 1272 1030 1289T1017 1332Q1017 1364 1038 1382T1103 1400H1544Q1588 1400 1609 1382T1630 1332Q1630 1305 1615 1290T1555
1256Q1541 1250 1526 1241T1483 1210T1409 1147T1284 1035L623 440L561 574ZM758 698L1115 994L1575 226Q1599 186 1617 171T1655 148Q1682 134 1693 114T1705 68Q1705 37 1684 19T1619 0H1054Q1010 0 989 18T968 69Q968 95 980 113T1011 138L1037 148Q1055 155
1055 174T1030 234L758 698ZM694 222Q694 197 703 182T735 156L763 142Q794 127 804 111T815 68Q815 37 794 19T729 0H175Q131 0 110 18T89 68Q89 122 141 142L179 156Q205 166 217 181T230 222V1178Q230 1203 218 1218T179 1244L141 1258Q89 1278 89 1332Q89 1364
110 1382T175 1400H749Q793 1400 814 1382T835 1332Q835 1278 783 1258L745 1244Q720 1234 707 1219T694 1178V222Z" />
<glyph unicode="L" glyph-name="L" horiz-adv-x="1334" d="M783 1258L745 1244Q720 1234 707 1219T694 1178V218Q694 176 714 160T771 143H848Q901 143 940 158T1015 213T1087 332L1154 472Q1171 507 1197 518T1256 520Q1290 510 1304 487T1307 425L1207 72Q1191
17 1167 -9T1095 -36Q1069 -36 1043 -27T985 -9T906 0H175Q131 0 110 18T89 68Q89 122 141 142L179 156Q205 166 217 181T230 222V1178Q230 1203 218 1218T179 1244L141 1258Q89 1278 89 1332Q89 1364 110 1382T175 1400H749Q793 1400 814 1382T835 1332Q835 1278
783 1258Z" />
<glyph unicode="M" glyph-name="M" horiz-adv-x="1973" d="M1069 478L923 457L1222 1265Q1251 1342 1288 1371T1393 1400H1781Q1825 1400 1846 1382T1867 1332Q1867 1304 1854 1286T1816 1258L1778 1244Q1747 1233 1737 1216T1728 1164L1791 232Q1793 195 1803
180T1839 156L1877 142Q1900 134 1912 116T1924 72Q1924 41 1903 21T1838 0H1280Q1235 0 1214 18T1193 68Q1193 94 1204 113T1245 142L1284 156Q1314 167 1324 183T1333 233L1259 1222L1390 1233L988 147Q960 71 931 50T860 29Q830 29 806 36T760 69T715 154L304
1194L430 1216L354 268Q350 220 374 195T436 149L464 133Q481 124 490 109T500 71Q500 39 480 20T415 0H120Q76 0 56 18T35 68Q35 99 51 115T93 145L114 155Q145 170 167 196T194 269L262 1119Q267 1178 256 1205T213 1244L175 1258Q149 1268 136 1286T123 1332Q123
1400 209 1400H593Q655 1400 692 1374T761 1268L1069 478Z" />
<glyph unicode="N" glyph-name="N" horiz-adv-x="1545" d="M550 68Q550 37 530 19T465 0H154Q110 1 89 19T68 68Q68 120 126 145L148 155Q193 176 211 203T230 288V1034Q230 1072 223 1092T190 1147L113 1250Q91 1281 83 1298T74 1335Q74 1366 95 1383T150 1400H487Q527
1400 552 1387T604 1336L1251 427L1191 250V1112Q1191 1168 1175 1195T1109 1245L1088 1255Q1030 1283 1030 1332Q1030 1364 1051 1382T1115 1400H1426Q1470 1400 1491 1382T1512 1332Q1512 1281 1454 1255L1432 1245Q1387 1225 1369 1198T1350 1112V368Q1350 328
1356 297T1381 241L1443 156Q1469 122 1474 105T1479 68Q1479 37 1458 19T1402 0H1012Q946 0 946 53Q946 71 939 88T897 153L247 1064L389 1153V287Q389 233 405 206T471 155L492 145Q550 119 550 68Z" />
<glyph unicode="O" glyph-name="O" horiz-adv-x="1609" d="M799 1440Q974 1440 1112 1387T1348 1234T1496 998T1548 691Q1548 538 1497 405T1350 172T1118 16T810 -40Q636 -40 498 13T262 166T113 402T61 709Q61 862 112 995T259 1228T491 1384T799 1440ZM1071
417Q1071 551 1050 679T991 920T907 1117T809 1250T706 1299Q652 1299 616 1263T561 1157T542 983Q542 849 563 721T622 480T706 283T804 150T907 101Q962 101 998 137T1052 243T1071 417Z" />
<glyph unicode="P" glyph-name="P" horiz-adv-x="1534" d="M1480 875Q1480 743 1410 647T1209 497T894 444Q775 444 683 470T516 542L531 666Q569 639 604 622T677 597T763 589Q837 589 898 621T995 720T1032 887Q1032 1002 991 1085T880 1213T718 1258H694V222Q694
197 705 180T745 156L805 143Q837 136 851 119T865 68Q865 37 844 19T779 0H175Q131 0 110 18T89 68Q89 122 141 142L179 156Q205 166 217 181T230 222V1178Q230 1203 218 1218T179 1244L141 1258Q89 1278 89 1332Q89 1364 110 1382T175 1400H732Q972 1400 1139
1333T1393 1147T1480 875Z" />
<glyph unicode="Q" glyph-name="Q" horiz-adv-x="1609" d="M797 1440Q971 1440 1109 1387T1345 1234T1494 998T1546 691Q1546 538 1495 405T1348 172T1116 16T808 -40Q634 -40 496 13T260 166T111 402T59 709Q59 862 110 995T257 1228T489 1384T797 1440ZM1071
417Q1071 551 1050 679T991 920T907 1117T809 1250T706 1299Q652 1299 616 1263T561 1157T542 983Q542 850 563 722T622 481T706 283T804 150T907 101Q962 101 998 137T1052 243T1071 417ZM816 337Q806 375 813 404T856 444Q894 455 916 435T950 379Q988 259 1031
181T1124 59T1236 -4T1373 -23Q1430 -23 1458 -11T1506 14T1551 27Q1571 27 1580 16T1590 -16Q1590 -31 1585 -48T1570 -89L1521 -209Q1505 -248 1471 -266T1368 -284Q1280 -284 1201 -250T1051 -141T921 52T816 337Z" />
<glyph unicode="R" glyph-name="R" horiz-adv-x="1663" d="M1516 909Q1516 818 1473 742T1351 613T1159 540Q1105 530 1062 518T974 497T873 488Q812 488 761 496T667 521T590 557L591 684Q618 665 647 653T711 634T791 628Q910 628 976 693T1042 899Q1042 1007
1002 1090T892 1222T733 1270H694V222Q694 197 703 182T735 156L763 142Q794 127 804 111T815 68Q815 0 729 0H175Q131 0 110 18T89 68Q89 122 141 142L179 156Q205 166 217 181T230 222V1178Q230 1203 218 1218T179 1244L141 1258Q89 1278 89 1332Q89 1364 110
1382T175 1400H752Q999 1400 1169 1338T1428 1166T1516 909ZM828 543L1277 593L1499 213Q1517 182 1531 167T1569 140Q1594 128 1605 111T1617 68Q1617 37 1596 19T1531 0H1035Q953 0 953 68Q953 84 959 96T982 120L994 129Q1012 143 1014 156T1004 194L828 543Z"
/>
<glyph unicode="S" glyph-name="S" horiz-adv-x="1297" d="M685 -30Q616 -30 566 -16T482 12T425 26Q401 26 382 17T344 -5T306 -26T265 -36Q234 -36 214 -18T187 42L130 383Q126 412 139 433T184 465Q218 477 243 465T288 415Q351 297 410 232T528 142T651 116Q734
116 784 154T834 264Q834 312 810 348T715 418T502 493Q346 539 252 603T116 760T74 982Q74 1111 137 1211T316 1369T591 1426Q673 1426 730 1412T829 1384T900 1369Q925 1369 944 1384T986 1416T1043 1432Q1075 1432 1097 1412T1135 1334L1224 1006Q1234 969 1221
941T1175 901Q1141 890 1116 903T1073 948Q1009 1074 937 1146T791 1249T648 1280Q569 1280 526 1237T482 1124Q482 1080 504 1044T595 969T805 882Q958 829 1050 765T1183 615T1225 413Q1225 290 1160 190T975 30T685 -30Z" />
<glyph unicode="T" glyph-name="T" horiz-adv-x="1492" d="M411 1400H1081Q1127 1400 1159 1408T1218 1423T1270 1431Q1319 1431 1343 1408T1382 1328L1446 995Q1454 955 1440 930T1390 899Q1358 892 1334 903T1292 948Q1233 1066 1191 1131T1112 1222T1029 1249H978V222Q978
197 991 182T1029 156L1067 142Q1119 122 1119 68Q1119 0 1033 0H459Q415 0 394 18T373 68Q373 122 425 142L463 156Q489 166 501 181T514 222V1249H463Q418 1249 381 1223T301 1131T200 948Q183 914 159 903T102 899Q68 905 54 930T46 995L110 1328Q125 1384 149
1407T222 1431Q248 1431 274 1424T332 1408T411 1400Z" />
<glyph unicode="U" glyph-name="U" horiz-adv-x="1536" d="M1203 620L1166 1117Q1162 1173 1143 1203T1082 1245L1053 1253Q1014 1264 998 1282T981 1331Q981 1362 1002 1381T1061 1400H1432Q1471 1400 1492 1381T1513 1331Q1513 1300 1495 1283T1440 1254L1412
1245Q1355 1227 1338 1194T1324 1106L1364 625Q1369 572 1371 521T1374 415Q1374 286 1312 183T1120 20T789 -40Q587 -40 453 15T252 173T185 414Q185 431 186 456T189 527T197 645L232 1177Q234 1206 223 1221T175 1244L136 1253Q63 1270 63 1331Q63 1362 84 1381T144
1400H780Q819 1400 840 1381T861 1331Q861 1300 844 1282T788 1254L747 1244Q722 1238 711 1223T697 1178L663 639Q659 578 658 527T657 440Q657 271 723 197T907 123Q1001 123 1069 159T1174 261T1211 420Q1211 491 1209 535T1203 620Z" />
<glyph unicode="V" glyph-name="V" horiz-adv-x="1518" d="M1017 1332Q1017 1364 1037 1382T1102 1400H1418Q1462 1400 1483 1382T1504 1332Q1504 1309 1492 1294T1453 1266L1424 1252Q1387 1234 1363 1201T1315 1094L1043 253Q1027 203 1021 175T1014 118V63Q1014
33 995 17T946 0H580Q552 0 534 16T515 66V120Q515 137 509 161T493 213L172 1162Q159 1200 145 1217T105 1248L76 1262Q33 1284 33 1332Q33 1364 54 1382T119 1400H694Q739 1400 759 1382T780 1332Q780 1307 768 1292T728 1265L695 1250Q669 1238 662 1213T671
1140L961 259L834 143L1152 1110Q1169 1161 1158 1194T1096 1252L1068 1266Q1043 1278 1030 1292T1017 1332Z" />
<glyph unicode="W" glyph-name="W" horiz-adv-x="2242" d="M1062 1089L1219 1067L957 223Q947 195 942 169T937 105V65Q937 33 919 17T873 0H526Q498 0 480 16T461 65V105Q461 125 458 140T445 190L152 1170Q142 1206 128 1222T87 1250L51 1265Q29 1274 20 1292T10
1333Q10 1364 30 1382T94 1400H652Q696 1400 716 1382T737 1333Q737 1286 693 1270L660 1259Q635 1251 630 1224T637 1152L907 226L757 123L1062 1089ZM1773 1332Q1773 1364 1794 1382T1858 1400H2153Q2197 1400 2217 1382T2238 1332Q2238 1309 2227 1295T2187
1266L2159 1252Q2121 1233 2096 1200T2053 1100L1817 223Q1805 179 1801 157T1797 105V65Q1797 33 1779 17T1733 0H1377Q1350 0 1332 16T1313 65V105Q1313 122 1310 138T1296 190L1017 1170Q1003 1219 994 1234T967 1256L932 1271Q909 1281 899 1295T889 1332Q889
1364 910 1382T974 1400H1512Q1556 1400 1576 1382T1597 1332Q1597 1308 1585 1292T1547 1266L1519 1256Q1495 1248 1489 1226T1497 1151L1755 223L1618 123L1893 1120Q1907 1170 1896 1204T1838 1259L1814 1270Q1793 1280 1783 1295T1773 1332Z" />
<glyph unicode="X" glyph-name="X" horiz-adv-x="1508" d="M1329 236Q1350 205 1365 188T1397 162T1438 142Q1465 130 1480 112T1495 68Q1495 37 1474 19T1409 0H784Q740 0 719 18T698 68Q698 97 712 114T756 145Q777 154 785 171T789 212T763 268L168 1180Q155
1201 144 1215T118 1239T83 1258Q53 1273 42 1289T30 1332Q30 1364 51 1382T116 1400H710Q755 1400 773 1382T792 1332Q792 1305 784 1288T752 1263L725 1254Q701 1246 700 1228T722 1172L1329 236ZM896 682L731 726L1038 1132Q1071 1176 1068 1205T1033 1250L1012
1260Q992 1270 979 1288T966 1332Q966 1364 985 1382T1047 1400H1347Q1433 1400 1433 1334Q1433 1308 1414 1289T1360 1251Q1324 1232 1294 1196T1205 1084L896 682ZM602 734L766 680L434 259Q397 211 402 183T435 141L449 134Q472 123 483 108T494 68Q494 37 474
19T413 0H112Q69 0 48 18T27 68Q27 91 40 107T86 142Q129 165 160 191T219 249T276 319L602 734Z" />
<glyph unicode="Y" glyph-name="Y" horiz-adv-x="1422" d="M926 431L554 380L160 1169Q140 1210 126 1225T89 1251L62 1263Q40 1273 29 1291T18 1332Q18 1364 39 1382T104 1400H671Q715 1400 736 1382T757 1332Q757 1276 705 1259L679 1250Q648 1239 643 1219T657
1155L920 546L767 474L1065 1112Q1086 1158 1076 1195T1018 1252L995 1263Q977 1271 965 1288T953 1332Q953 1364 974 1382T1039 1400H1326Q1370 1400 1390 1382T1411 1332Q1411 1308 1401 1293T1370 1265L1354 1256Q1335 1246 1318 1230T1282 1182T1235 1094L926
431ZM499 519H963V222Q963 197 976 182T1014 156L1052 142Q1104 122 1104 68Q1104 37 1083 19T1018 0H444Q400 0 379 18T358 68Q358 122 410 142L448 156Q474 166 486 181T499 222V519Z" />
<glyph unicode="Z" glyph-name="Z" horiz-adv-x="1324" d="M1227 1241L501 50L265 143H798Q844 143 884 153T961 188T1030 260T1092 379L1121 450Q1135 485 1161 496T1220 500Q1255 493 1268 468T1274 406L1200 72Q1188 19 1163 -6T1088 -31Q1062 -31 1036 -24T978
-8T899 0H89Q52 0 34 18T15 67Q15 85 23 108T50 160L781 1359L828 1257H507Q446 1257 402 1240T323 1181T253 1062L227 1010Q209 976 183 967T130 961Q96 966 80 988T70 1051L118 1328Q129 1382 155 1406T230 1431Q256 1431 282 1424T341 1408T419 1400H1188Q1225
1400 1244 1384T1264 1335Q1264 1318 1255 1295T1227 1241Z" />
<glyph unicode="[" glyph-name="bracketleft" horiz-adv-x="776" d="M475 1270V-47Q475 -90 497 -108T569 -126H689Q769 -126 769 -192Q769 -220 750 -238T689 -256H247Q194 -256 172 -232T150 -155V1378Q150 1431 172 1455T247 1479H689Q731 1479 750 1461T769
1414Q769 1348 689 1348H569Q520 1348 498 1331T475 1270Z" />
<glyph unicode="\" glyph-name="backslash" horiz-adv-x="1024" d="M433 574Q457 521 485 452T544 306T604 149T663 -6T718 -146T766 -257Q787 -301 831 -311T931 -296Q987 -270 1007 -230T1007 -145Q985 -98 953 -37T882 95T801 240T719 387T645 525T585 644Q560
697 532 766T474 912T414 1069T355 1224T300 1364T252 1475Q231 1519 187 1529T87 1514Q31 1488 11 1448T11 1363Q32 1317 64 1255T136 1123T217 978T299 831T373 693T433 574Z" />
<glyph unicode="]" glyph-name="bracketright" horiz-adv-x="796" d="M321 -47V1270Q321 1313 299 1331T227 1349H107Q27 1349 27 1415Q27 1443 46 1461T107 1479H549Q602 1479 624 1455T646 1378V-155Q646 -208 624 -232T549 -256H107Q65 -256 46 -238T27 -191Q27
-125 107 -125H227Q276 -125 298 -108T321 -47Z" />
<glyph unicode="^" glyph-name="asciicircum" horiz-adv-x="956" d="M539 1260H424L702 790Q743 738 782 728T854 734Q881 749 885 783T865 857L641 1317Q598 1389 563 1411T481 1433Q435 1433 400 1411T321 1317L91 860Q67 819 70 785T102 735Q135 718 173 728T253
792L539 1260Z" />
<glyph unicode="_" glyph-name="underscore" horiz-adv-x="1047" d="M2 -279Q2 -238 19 -215T75 -191H972Q1010 -191 1027 -214T1044 -279Q1044 -320 1027 -344T972 -368H75Q37 -368 20 -344T2 -279Z" />
<glyph unicode="`" glyph-name="grave" horiz-adv-x="585" d="M409 1337L481 1138Q492 1118 495 1100T482 1065Q468 1052 444 1051T399 1059L221 1162Q147 1200 108 1241T61 1344Q53 1399 88 1449T196 1508Q274 1519 324 1471T409 1337Z" />
<glyph unicode="a" glyph-name="a" horiz-adv-x="1203" d="M666 137V160L634 161V807Q634 845 614 868T558 891Q532 891 513 879T493 845V736Q493 652 436 606T271 560Q180 560 136 598T91 706Q91 772 151 838T331 948T635 992Q847 992 950 915T1053 703V225Q1053
206 1062 194T1092 181Q1109 181 1119 190T1139 208Q1146 215 1153 220T1171 225Q1188 225 1195 213T1203 181Q1203 137 1171 89T1076 6T918 -28Q807 -28 737 19T666 137ZM55 213Q55 350 179 429T527 509Q586 509 630 501T702 478L668 391Q647 403 629 408T588
413Q539 413 511 381T482 287Q482 223 510 190T584 156Q613 156 638 169T677 201L701 121Q653 50 562 11T366 -28Q226 -28 141 41T55 213Z" />
<glyph unicode="b" glyph-name="b" horiz-adv-x="1300" d="M544 1420V74L378 18Q293 -10 259 -18T196 -26Q162 -26 141 -7T120 48V1196Q120 1228 112 1241T86 1260L64 1267Q43 1274 34 1287T24 1320Q24 1344 37 1358T86 1386L308 1472Q362 1493 393 1501T448 1510Q496
1510 520 1485T544 1420ZM469 626L398 694Q484 834 591 914T836 994Q955 994 1049 933T1197 765T1252 516Q1252 353 1185 231T1002 40T740 -28Q619 -28 529 23T372 180L481 254Q527 188 568 161T657 133Q704 133 739 167T794 276T814 473Q814 585 794 653T738 753T657
785Q602 785 556 748T469 626Z" />
<glyph unicode="c" glyph-name="c" horiz-adv-x="1115" d="M1053 685Q1053 609 996 556T842 503Q749 503 703 552T656 679V711Q656 776 629 813T558 851Q523 851 493 825T443 746T424 610Q424 494 463 416T572 299T729 259Q793 259 844 274T947 335Q976 361 991
370T1020 379Q1040 379 1049 359T1059 310Q1059 221 1000 144T834 19T588 -28Q435 -28 314 32T121 201T50 455Q50 610 118 732T312 924T609 994Q746 994 845 953T999 841T1053 685Z" />
<glyph unicode="d" glyph-name="d" horiz-adv-x="1321" d="M772 177L757 178V1196Q757 1228 749 1241T723 1260L701 1267Q680 1274 671 1287T661 1320Q661 1344 674 1358T723 1386L945 1472Q996 1492 1027 1501T1089 1510Q1134 1510 1157 1485T1181 1420V210Q1181
170 1187 154T1208 130L1230 120Q1253 110 1263 95T1273 60Q1273 32 1255 16T1197 0H942Q875 0 824 49T772 165V177ZM49 450Q49 613 116 735T299 926T561 994Q683 994 773 943T929 786L820 712Q774 778 733 805T644 833Q597 833 562 799T507 691T487 493Q487 381
507 313T563 213T644 181Q700 181 745 218T832 340L903 272Q818 133 711 53T465 -28Q346 -28 252 33T104 201T49 450Z" />
<glyph unicode="e" glyph-name="e" horiz-adv-x="1120" d="M1071 608Q1071 538 1033 500T924 461H331V565H598Q653 565 653 617Q653 743 624 797T547 851Q512 851 484 825T440 746T423 610Q423 428 505 344T729 259Q795 259 849 274T955 335Q984 361 999 370T1028
379Q1048 379 1057 359T1067 310Q1067 221 1007 144T839 19T588 -28Q435 -28 313 32T120 201T49 455Q49 618 114 739T303 927T604 994Q759 994 863 944T1019 807T1071 608Z" />
<glyph unicode="f" glyph-name="f" horiz-adv-x="914" d="M634 211Q634 175 644 156T682 134L785 121Q815 118 827 101T840 61Q840 0 767 0H145Q112 0 93 15T73 58Q73 83 86 98T128 123L154 131Q186 141 198 159T210 209V709Q210 728 200 742T161 769L124 786Q86
804 72 820T57 858Q57 882 74 897T129 913H298L212 881V911Q212 931 194 952T152 1000T110 1065T92 1159Q92 1295 201 1378T509 1462Q636 1462 723 1424T854 1322T899 1184Q899 1102 852 1059T731 1016Q647 1016 597 1064T547 1195V1277Q547 1318 523 1337T461
1357Q418 1357 397 1332T375 1259Q375 1209 397 1169T453 1096T520 1033T576 973T599 909V854L555 913H790Q821 913 839 900T858 861Q858 823 821 797T699 771H634V211Z" />
<glyph unicode="g" glyph-name="g" horiz-adv-x="1236" d="M779 149Q642 163 582 173T508 192T493 210Q493 219 501 226T526 240L516 260Q379 257 302 228T192 152T159 49Q159 -7 190 -45T303 -110T539 -154Q663 -169 734 -182T834 -214T864 -263Q864 -294 845
-315T776 -346T636 -357Q479 -357 419 -312T359 -187Q359 -167 364 -149T378 -121L371 -90Q182 -111 113 -162T43 -284Q43 -346 88 -392T246 -464T561 -490Q891 -490 1063 -391T1235 -138Q1235 -50 1190 7T1044 98T779 149ZM756 889L847 883Q879 963 902 992T963
1021Q1000 1021 1020 1004T1055 964T1093 924T1159 907Q1221 907 1259 953T1297 1076Q1297 1159 1248 1203T1122 1247Q1023 1247 936 1181T792 977L756 889ZM1148 630Q1148 732 1089 813T914 941T632 988Q457 988 331 938T138 798T71 589Q71 488 130 407T305 278T587
231Q763 231 888 281T1081 421T1148 630ZM558 871Q607 881 642 823T703 632Q729 499 719 432T660 355Q628 349 602 372T554 450T515 594Q498 683 497 742T510 833T558 871Z" />
<glyph unicode="h" glyph-name="h" horiz-adv-x="1374" d="M574 1420V210Q574 170 580 154T601 130L621 119Q654 100 654 64Q654 0 577 0H134Q94 0 76 16T58 60Q58 80 68 95T101 120L123 130Q138 137 144 153T150 210V1196Q150 1228 142 1241T116 1260L94 1267Q73
1274 64 1287T54 1320Q54 1344 67 1358T116 1386L338 1472Q389 1492 420 1501T482 1510Q527 1510 550 1485T574 1420ZM538 660L478 724L508 752Q649 883 749 938T934 994Q1064 994 1137 905T1224 674L1269 210Q1273 170 1277 154T1296 130L1318 120Q1341 110 1351
95T1361 60Q1361 32 1343 16T1285 0H837Q760 0 760 64Q760 100 793 119L813 130Q828 138 836 154T840 210L802 614Q796 678 772 710T696 742Q665 742 633 729T573 691L538 660Z" />
<glyph unicode="i" glyph-name="i" horiz-adv-x="704" d="M574 904V210Q574 170 580 154T601 130L623 120Q646 110 656 95T666 60Q666 32 648 16T590 0H134Q94 0 76 16T58 60Q58 80 68 95T101 120L123 130Q138 137 144 153T150 210V680Q150 712 142 725T116 744L94
751Q73 758 64 771T54 804Q54 828 67 842T116 870L338 956Q392 977 423 985T478 994Q526 994 550 969T574 904ZM340 1082Q228 1082 163 1134T98 1276Q98 1365 163 1416T340 1467Q452 1467 517 1416T582 1276Q582 1186 517 1134T340 1082Z" />
<glyph unicode="j" glyph-name="j" horiz-adv-x="704" d="M574 274Q574 216 592 163T634 57T676 -47T695 -156Q695 -298 589 -382T300 -466Q167 -466 79 -430T-53 -333T-97 -203Q-97 -111 -47 -66T89 -20Q171 -20 219 -73T268 -212V-287Q268 -325 288 -343T344
-361Q383 -361 404 -339T425 -272Q425 -223 397 -177T328 -85T247 6T178 99T150 197V680Q150 712 142 725T116 744L94 751Q73 758 64 771T54 804Q54 828 67 842T116 870L338 956Q393 977 424 985T480 994Q527 994 550 969T574 904V274ZM340 1082Q228 1082 163 1134T98
1276Q98 1365 163 1416T340 1467Q452 1467 517 1416T582 1276Q582 1186 517 1134T340 1082Z" />
<glyph unicode="k" glyph-name="k" horiz-adv-x="1324" d="M134 0Q94 0 76 16T58 60Q58 80 68 95T101 120L123 130Q138 137 144 153T150 210V1196Q150 1228 142 1241T116 1260L94 1267Q73 1274 64 1287T54 1320Q54 1344 67 1358T116 1386L338 1472Q389 1492 420
1501T482 1510Q527 1510 550 1485T574 1420V210Q574 170 580 154T601 130L621 119Q654 100 654 64Q654 0 577 0H134ZM451 436L827 738Q861 765 858 794T818 839L793 850Q773 859 766 871T758 904Q758 932 777 948T830 964H1220Q1254 964 1273 949T1293 907Q1293
881 1278 864T1210 832Q1157 817 1110 791T996 712L503 328L451 436ZM868 729L1230 188Q1246 165 1259 152T1291 126Q1314 110 1327 93T1341 55Q1341 30 1322 15T1269 0H799Q770 0 753 16T735 59Q735 76 742 87T765 109L784 120Q800 129 801 145T780 196L594 479L868
729Z" />
<glyph unicode="l" glyph-name="l" horiz-adv-x="704" d="M574 1420V210Q574 170 580 154T601 130L623 120Q646 110 656 95T666 60Q666 32 648 16T590 0H134Q94 0 76 16T58 60Q58 80 68 95T101 120L123 130Q138 137 144 153T150 210V1196Q150 1228 142 1241T116
1260L94 1267Q73 1274 64 1287T54 1320Q54 1344 67 1358T116 1386L338 1472Q392 1493 423 1501T478 1510Q526 1510 550 1485T574 1420Z" />
<glyph unicode="m" glyph-name="m" horiz-adv-x="2021" d="M574 904V210Q574 170 580 154T601 130L621 119Q654 100 654 64Q654 0 577 0H134Q94 0 76 16T58 60Q58 80 68 95T101 120L123 130Q138 137 144 153T150 210V680Q150 712 142 725T116 744L94 751Q73 758
64 771T54 804Q54 828 67 842T116 870L338 956Q389 976 420 985T482 994Q527 994 550 969T574 904ZM538 660L478 724L508 752Q649 887 750 940T939 994Q1073 994 1152 906T1232 674V210Q1232 170 1238 154T1259 130L1279 119Q1312 100 1312 64Q1312 0 1235 0H805Q728
0 728 64Q728 100 761 119L781 130Q796 138 802 154T808 210V614Q808 678 781 710T701 742Q668 742 635 729T573 691L538 660ZM1196 660L1136 724L1166 752Q1305 882 1402 938T1582 994Q1712 994 1785 905T1872 674L1917 210Q1921 170 1925 154T1944 130L1966 120Q1989
110 1999 95T2009 60Q2009 32 1991 16T1933 0H1485Q1408 0 1408 64Q1408 100 1441 119L1461 130Q1476 138 1484 154T1488 210L1450 614Q1444 678 1420 710T1344 742Q1316 742 1287 728T1231 691L1196 660Z" />
<glyph unicode="n" glyph-name="n" horiz-adv-x="1373" d="M574 904V210Q574 170 580 154T601 130L621 119Q654 100 654 64Q654 0 577 0H134Q94 0 76 16T58 60Q58 80 68 95T101 120L123 130Q138 137 144 153T150 210V680Q150 712 142 725T116 744L94 751Q73 758
64 771T54 804Q54 828 67 842T116 870L338 956Q389 976 420 985T482 994Q527 994 550 969T574 904ZM538 660L478 724L508 752Q649 883 749 938T934 994Q1064 994 1137 905T1224 674L1269 210Q1273 170 1277 154T1296 130L1318 120Q1341 110 1351 95T1361 60Q1361
32 1343 16T1285 0H837Q760 0 760 64Q760 100 793 119L813 130Q828 138 836 154T840 210L802 614Q796 678 772 710T696 742Q665 742 633 729T573 691L538 660Z" />
<glyph unicode="o" glyph-name="o" horiz-adv-x="1247" d="M631 994Q801 994 928 930T1125 749T1196 479Q1196 337 1122 222T918 40T615 -28Q445 -28 318 37T121 219T50 487Q50 632 124 746T328 927T631 994ZM704 117Q742 126 762 170T780 298T750 511Q724 635
692 713T621 825T542 849Q504 840 484 796T466 669T496 455Q522 332 555 254T625 142T704 117Z" />
<glyph unicode="p" glyph-name="p" horiz-adv-x="1330" d="M554 904V814L574 776V-256Q574 -296 580 -312T601 -336L623 -346Q646 -356 656 -371T666 -406Q666 -434 648 -450T590 -466H134Q94 -466 76 -450T58 -406Q58 -386 68 -371T101 -346L123 -336Q138 -329
144 -313T150 -256V680Q150 712 142 725T116 744L94 751Q73 758 64 771T54 804Q54 828 67 840T116 869L318 956Q367 977 399 985T457 994Q506 994 530 969T554 904ZM499 626L428 694Q514 834 621 914T866 994Q985 994 1079 933T1227 765T1282 516Q1282 353 1215
231T1032 40T770 -28Q649 -28 559 23T402 180L511 254Q557 188 598 161T687 133Q734 133 769 167T824 276T844 473Q844 585 824 653T768 753T687 785Q632 785 586 748T499 626Z" />
<glyph unicode="q" glyph-name="q" horiz-adv-x="1302" d="M742 -466Q702 -466 684 -450T666 -406Q666 -386 676 -371T709 -346L731 -336Q746 -329 752 -313T758 -256V892L924 948Q1001 974 1038 983T1100 992Q1139 992 1160 973T1182 918V-256Q1182 -296 1188
-312T1209 -336L1231 -346Q1254 -356 1264 -371T1274 -406Q1274 -434 1256 -450T1198 -466H742ZM904 272Q819 133 712 53T466 -28Q347 -28 253 33T105 201T50 450Q50 613 117 735T300 926T562 994Q684 994 774 943T930 786L821 712Q775 778 734 805T645 833Q598
833 563 799T508 691T488 493Q488 381 508 313T564 213T645 181Q701 181 746 218T833 340L904 272Z" />
<glyph unicode="r" glyph-name="r" horiz-adv-x="1070" d="M535 546Q535 699 575 798T681 946T827 994Q933 994 989 931T1046 739Q1046 608 994 546T857 484Q772 484 730 527T687 648V690Q686 716 676 729T643 743Q623 743 608 726T583 669T574 562L535 546ZM546
904L574 695V210Q574 175 584 161T630 139L706 124Q736 118 750 103T764 61Q764 32 745 16T687 0H134Q94 0 76 16T58 60Q58 80 68 95T101 120L123 130Q138 137 144 153T150 210V676Q150 708 142 721T116 740L94 747Q73 754 64 767T54 800Q54 824 67 838T116 866L331
950Q402 978 433 986T481 994Q509 994 524 974T546 904Z" />
<glyph unicode="s" glyph-name="s" horiz-adv-x="1070" d="M536 99Q593 99 620 124T648 184Q648 205 640 223T603 257T511 283Q325 314 228 365T95 487T60 646Q60 809 173 901T509 994Q585 994 630 982T703 958T753 946Q778 946 791 958T819 982T861 994Q882 994
899 980T927 928L979 751Q995 699 989 668T950 625Q918 613 895 624T848 668Q803 735 753 779T649 845T536 867Q469 867 436 842T402 775Q402 749 415 730T471 696T596 665Q742 639 827 591T949 471T986 304Q986 204 932 129T785 13T571 -28Q497 -28 455 -16T385
9T332 22Q306 22 287 10T250 -15T208 -28Q186 -28 171 -12T149 43L118 214Q109 265 117 290T153 328Q184 341 208 328T257 279Q326 180 397 140T536 99Z" />
<glyph unicode="t" glyph-name="t" horiz-adv-x="884" d="M96 834L64 847Q42 856 31 870T20 904Q20 933 39 948T90 964H145Q164 964 180 974T223 1010L386 1175Q419 1208 447 1224T502 1240Q531 1240 547 1221T564 1166V364Q564 291 589 253T661 215Q699 215 719
234T752 277T779 321T817 340Q837 340 849 326T861 278Q861 193 812 124T677 13T481 -28Q318 -28 229 50T140 288V769Q140 798 130 811T96 834ZM418 822V964H783Q814 964 832 951T851 912Q851 874 814 848T692 822H418Z" />
<glyph unicode="u" glyph-name="u" horiz-adv-x="1350" d="M791 205V218H776V680Q776 712 768 725T742 744L720 751Q699 758 690 771T680 804Q680 828 693 842T742 870L964 956Q1015 976 1046 985T1108 994Q1153 994 1176 969T1200 904V210Q1200 170 1206 154T1227
130L1249 120Q1272 110 1282 95T1292 60Q1292 32 1274 16T1216 0H971Q900 0 846 61T791 205ZM130 292V680Q130 712 122 725T96 744L74 751Q53 758 44 771T34 804Q34 828 47 842T96 870L318 956Q372 977 403 985T458 994Q506 994 530 969T554 904V352Q554 288 583
256T666 224Q699 224 735 237T799 275L834 306L894 242L864 214Q723 79 619 26T428 -28Q295 -28 213 61T130 292Z" />
<glyph unicode="v" glyph-name="v" horiz-adv-x="1168" d="M666 0H504Q462 0 431 21T381 89L102 769Q87 805 78 817T58 835L37 845Q17 855 8 868T-1 904Q-1 932 18 948T72 964H610Q682 964 682 904Q682 882 671 869T633 847L606 839Q566 827 557 800T573 708L769
196L673 139L878 708Q902 774 893 801T845 839L818 847Q793 855 781 868T769 904Q769 932 788 948T841 964H1100Q1134 964 1153 948T1173 904Q1173 885 1164 871T1129 847L1110 840Q1092 833 1076 803T1032 703L791 80Q772 32 738 16T666 0Z" />
<glyph unicode="w" glyph-name="w" horiz-adv-x="1780" d="M629 0H477Q434 0 403 20T353 89L102 769Q89 806 79 818T58 835L37 845Q17 855 8 868T-1 904Q-1 932 18 948T72 964H578Q611 964 630 948T650 904Q650 882 639 869T601 847L574 839Q552 832 548 809T567
718L738 216L635 137L869 762L990 685L753 80Q734 32 701 16T629 0ZM1311 0H1165Q1123 0 1091 20T1041 89L803 769Q790 806 780 818T759 835L738 845Q718 855 709 868T700 904Q700 964 773 964H1267Q1339 964 1339 904Q1339 882 1328 868T1297 849L1253 841Q1231
837 1229 811T1247 719L1409 216L1316 137L1489 691Q1515 771 1513 801T1484 839L1457 847Q1432 855 1420 868T1408 904Q1408 932 1427 948T1480 964H1712Q1746 964 1765 948T1785 904Q1785 885 1776 871T1741 847L1722 840Q1704 833 1689 803T1649 703L1435 80Q1419
33 1384 17T1311 0Z" />
<glyph unicode="x" glyph-name="x" horiz-adv-x="1201" d="M436 534L547 480L379 257Q345 211 350 177T387 127L406 118Q426 108 436 95T446 62Q446 34 426 18T372 1H95Q61 1 42 17T22 62Q22 82 33 96T72 127Q106 143 133 165T192 223T266 313L436 534ZM647 770L805
547L822 527L1058 212Q1089 172 1107 153T1144 122Q1165 109 1175 95T1185 61Q1185 33 1165 17T1110 0H585Q549 0 529 16T509 62Q509 82 517 94T543 114L563 122Q584 130 584 146T563 192L405 418L387 440L166 760Q143 794 121 810T75 837Q49 848 40 863T30 902Q30
931 50 947T105 964H617Q651 964 671 948T691 903Q691 884 684 871T663 848L644 835Q628 824 628 810T647 770ZM759 431L648 485L816 708Q851 754 846 788T808 838L789 847Q769 857 759 870T749 903Q749 932 769 948T823 964H1100Q1135 964 1154 948T1173 903Q1173
883 1162 869T1123 838Q1073 815 1034 774T929 652L759 431Z" />
<glyph unicode="y" glyph-name="y" horiz-adv-x="1214" d="M806 196L574 -179L115 767Q98 803 81 817T37 845Q17 855 8 868T-1 904Q-1 932 18 948T72 964H610Q643 964 662 948T682 904Q682 882 671 869T633 847L606 839Q566 827 559 800T580 708L806 196ZM580
-86L608 -22L662 79L906 688Q932 752 925 785T877 832L844 843Q819 851 807 866T794 904Q794 932 813 948T866 964H1147Q1181 964 1200 948T1220 904Q1220 886 1210 872T1175 844Q1138 825 1112 796T1060 702L755 -37Q684 -209 627 -302T502 -430T335 -466Q190
-466 104 -389T18 -193Q18 -109 61 -61T176 -12Q247 -12 284 -52T350 -159L371 -207Q385 -240 403 -259T442 -278Q461 -278 477 -267T518 -214T580 -86Z" />
<glyph unicode="z" glyph-name="z" horiz-adv-x="1060" d="M979 792L473 44L423 123H556Q629 123 678 139T768 198T858 322L892 378Q909 407 932 415T982 419Q1011 413 1022 394T1028 341L969 31Q963 0 946 -14T901 -28Q871 -28 841 -14T749 0H153Q94 0 70 16T45
64Q45 85 55 110T90 172L596 919L666 841H494Q435 841 394 829T318 784T246 688L200 610Q186 586 165 577T114 576Q88 584 76 606T70 661L123 933Q129 963 146 978T191 994Q221 994 251 979T342 964H916Q975 964 999 948T1024 900Q1024 879 1014 854T979 792Z"
/>
<glyph unicode="{" glyph-name="braceleft" horiz-adv-x="858" d="M437 612Q437 579 475 579Q588 579 654 538T720 422Q720 374 695 327T636 234T577 141T551 49Q551 -35 592 -80T710 -126H753Q833 -126 833 -192Q833 -218 812 -237T738 -256H639Q491 -256 396
-220T254 -121T207 20Q207 106 242 171T323 288T404 383T439 467Q439 505 417 525T352 546Q316 546 297 530T258 498T198 482Q149 482 120 520T90 612Q90 665 119 703T198 742Q238 742 258 726T297 694T352 678Q394 678 416 699T439 757Q439 798 404 841T323 935T242
1052T207 1204Q207 1283 253 1345T395 1443T639 1480H738Q791 1480 812 1461T833 1416Q833 1350 753 1350H710Q633 1350 592 1305T551 1175Q551 1129 576 1083T635 991T694 897T720 802Q720 729 654 687T475 645Q437 645 437 612Z" />
<glyph unicode="|" glyph-name="bar" horiz-adv-x="657" d="M254 613Q254 688 246 793T227 1011T208 1228T200 1403Q200 1466 232 1501T328 1536Q392 1536 424 1501T456 1403Q456 1346 451 1268T437 1101T421 923T408 753T402 613Q402 538 410 433T429 215T448
-2T456 -177Q456 -240 424 -275T328 -310Q264 -310 232 -275T200 -177Q200 -120 205 -42T219 125T235 303T248 473T254 613Z" />
<glyph unicode="}" glyph-name="braceright" horiz-adv-x="858" d="M421 612Q421 645 383 645Q270 645 204 686T138 802Q138 850 163 897T222 990T281 1083T307 1175Q307 1259 266 1304T148 1350H105Q25 1350 25 1416Q25 1442 46 1461T120 1480H219Q367 1480 462
1444T604 1345T651 1204Q651 1118 616 1053T535 936T454 841T419 757Q419 719 441 699T506 678Q542 678 561 694T600 726T660 742Q709 742 738 704T768 612Q768 559 739 521T660 482Q620 482 600 498T561 530T506 546Q464 546 442 525T419 467Q419 426 454 383T535
289T616 172T651 20Q651 -59 605 -121T463 -219T219 -256H120Q67 -256 46 -237T25 -192Q25 -126 105 -126H148Q225 -126 266 -81T307 49Q307 95 282 141T223 233T164 327T138 422Q138 495 204 537T383 579Q421 579 421 612Z" />
<glyph unicode="~" glyph-name="asciitilde" horiz-adv-x="1289" d="M891 501Q827 501 764 530T641 596T522 663T410 692Q348 692 306 656T249 552Q239 525 218 510T169 495Q92 495 92 584Q92 661 133 728T243 836T398 877Q482 877 551 848T679 782T787 715T880
686Q941 686 983 717T1036 813Q1049 848 1071 864T1120 881Q1198 881 1198 791Q1198 710 1157 645T1046 540T891 501Z" />
</font>
</defs>
</svg>
